<svg xmlns="http://www.w3.org/2000/svg" width="740" height="420" viewBox="0 0 740 420">
<rect width="100%" height="100%" fill="white" />
<line x1="62" y1="358" x2="678" y2="358" stroke="#111827" />
<line x1="62" y1="62" x2="62" y2="358" stroke="#111827" />
<line x1="62.00" y1="299.66" x2="678.00" y2="211.10" stroke="#dc2626" stroke-width="2" />
<circle cx="104.48" cy="287.31" r="4.5" fill="#16a34a" />
<circle cx="635.52" cy="147.50" r="4.5" fill="#2563eb" />
<circle cx="604.50" cy="82.41" r="4.5" fill="#16a34a" />
<circle cx="551.79" cy="219.68" r="4.5" fill="#2563eb" />
<circle cx="582.41" cy="226.56" r="4.5" fill="#16a34a" />
<circle cx="614.52" cy="248.49" r="4.5" fill="#2563eb" />
<circle cx="545.08" cy="207.27" r="4.5" fill="#16a34a" />
<circle cx="596.39" cy="225.42" r="4.5" fill="#2563eb" />
<circle cx="562.51" cy="288.97" r="4.5" fill="#16a34a" />
<circle cx="599.39" cy="252.45" r="4.5" fill="#2563eb" />
<circle cx="621.04" cy="205.94" r="4.5" fill="#16a34a" />
<circle cx="582.31" cy="308.24" r="4.5" fill="#2563eb" />
<circle cx="608.64" cy="337.59" r="4.5" fill="#16a34a" />
<circle cx="563.02" cy="136.08" r="4.5" fill="#2563eb" />
<circle cx="596.00" cy="216.03" r="4.5" fill="#16a34a" />
<circle cx="628.38" cy="220.93" r="4.5" fill="#2563eb" />
<circle cx="599.69" cy="274.43" r="4.5" fill="#16a34a" />
<circle cx="613.62" cy="162.44" r="4.5" fill="#2563eb" />
<circle cx="577.90" cy="283.97" r="4.5" fill="#16a34a" />
<circle cx="620.83" cy="199.69" r="4.5" fill="#2563eb" />
<text x="62" y="26" font-family="sans-serif" font-size="13">Fitts ID-MT -- counterstrafe_ad_v1-2026-08-07T09_24_18.148Z (status=ok, reason=ok, n=20)</text>
<text x="62" y="44" font-family="sans-serif" font-size="12">observational, non-controlled design; MT includes RT + counter-strafe stop time</text>
<text x="370" y="404" font-family="sans-serif" font-size="12" text-anchor="middle">ID (bits)</text>
<text x="16" y="210" font-family="sans-serif" font-size="12" transform="rotate(-90 16 210)" text-anchor="middle">MT (ms)</text>
</svg>
