{
  "asset": {
    "version": "2.0",
    "generator": "FPS_aim_analyst WP-26 T1 br-field generator (original geometry, CC0)",
    "copyright": "CC0 1.0 - original work, FPS_aim_analyst"
  },
  "scene": 0,
  "scenes": [
    {
      "name": "br-field",
      "nodes": [
        0,
        1,
        2,
        3,
        4,
        5,
        6,
        7,
        8,
        9,
        10,
        11,
        12,
        13,
        14,
        15,
        16,
        17,
        18,
        19,
        20,
        21,
        22,
        23,
        24,
        25,
        26,
        27,
        28,
        29,
        30,
        31,
        32,
        33,
        34,
        35,
        36,
        37,
        38,
        39,
        40,
        41,
        42,
        43,
        44,
        45,
        46,
        47,
        48,
        49,
        50,
        51,
        52,
        53,
        54,
        55,
        56,
        57,
        58,
        59,
        60,
        61,
        62,
        63,
        64,
        65,
        66,
        67,
        68,
        69,
        70,
        71,
        72,
        73,
        74,
        75,
        76,
        77,
        78,
        79,
        80,
        81,
        82,
        83,
        84,
        85,
        86,
        87,
        88,
        89,
        90,
        91,
        92,
        93,
        94,
        95,
        96,
        97,
        98,
        99,
        100,
        101,
        102,
        103,
        104,
        105,
        106,
        107,
        108,
        109,
        110,
        111,
        112,
        113,
        114,
        115,
        116,
        117,
        118,
        119,
        120,
        121,
        122,
        123,
        124,
        125,
        126,
        127,
        128
      ]
    }
  ],
  "nodes": [
    {
      "name": "hay-l1",
      "mesh": 5,
      "translation": [
        -45,
        0.525,
        -35
      ],
      "scale": [
        2.4000000000000057,
        1.05,
        1.5
      ]
    },
    {
      "name": "hay-l2",
      "mesh": 5,
      "translation": [
        -53,
        0.525,
        -56
      ],
      "scale": [
        2.4000000000000057,
        1.05,
        1.5
      ]
    },
    {
      "name": "hay-l3",
      "mesh": 5,
      "translation": [
        -37,
        0.525,
        -77
      ],
      "scale": [
        2.4000000000000057,
        1.05,
        1.5
      ]
    },
    {
      "name": "hay-l4",
      "mesh": 5,
      "translation": [
        -45,
        0.525,
        -98
      ],
      "scale": [
        2.4000000000000057,
        1.05,
        1.5
      ]
    },
    {
      "name": "hay-l5",
      "mesh": 5,
      "translation": [
        -53,
        0.525,
        -119
      ],
      "scale": [
        2.4000000000000057,
        1.05,
        1.5
      ]
    },
    {
      "name": "hay-r1",
      "mesh": 5,
      "translation": [
        34,
        0.525,
        -25
      ],
      "scale": [
        2.4000000000000057,
        1.05,
        1.5
      ]
    },
    {
      "name": "hay-r2",
      "mesh": 5,
      "translation": [
        42,
        0.525,
        -47
      ],
      "scale": [
        2.4000000000000057,
        1.05,
        1.5
      ]
    },
    {
      "name": "hay-r3",
      "mesh": 5,
      "translation": [
        50,
        0.525,
        -69
      ],
      "scale": [
        2.4000000000000057,
        1.05,
        1.5
      ]
    },
    {
      "name": "hay-r4",
      "mesh": 5,
      "translation": [
        34,
        0.525,
        -91
      ],
      "scale": [
        2.4000000000000057,
        1.05,
        1.5
      ]
    },
    {
      "name": "hay-r5",
      "mesh": 5,
      "translation": [
        42,
        0.525,
        -113
      ],
      "scale": [
        2.4000000000000057,
        1.05,
        1.5
      ]
    },
    {
      "name": "shrub-l1",
      "mesh": 2,
      "translation": [
        -33.5,
        0.475,
        -11.4
      ],
      "scale": [
        1.7999999999999972,
        0.95,
        1.8000000000000007
      ]
    },
    {
      "name": "shrub-l10",
      "mesh": 2,
      "translation": [
        -29.5,
        0.35,
        -97.80000000000001
      ],
      "scale": [
        1.7999999999999972,
        0.7,
        1.7999999999999972
      ]
    },
    {
      "name": "shrub-l11",
      "mesh": 2,
      "translation": [
        -33.5,
        0.475,
        -107.4
      ],
      "scale": [
        2.0999999999999943,
        0.95,
        2.1000000000000085
      ]
    },
    {
      "name": "shrub-l12",
      "mesh": 2,
      "translation": [
        -37.5,
        0.35,
        -117
      ],
      "scale": [
        1.5,
        0.7,
        1.5
      ]
    },
    {
      "name": "shrub-l13",
      "mesh": 2,
      "translation": [
        -41.5,
        0.475,
        -126.6
      ],
      "scale": [
        1.7999999999999972,
        0.95,
        1.7999999999999972
      ]
    },
    {
      "name": "shrub-l14",
      "mesh": 2,
      "translation": [
        -25.5,
        0.35,
        -136.2
      ],
      "scale": [
        2.1000000000000014,
        0.7,
        2.0999999999999943
      ]
    },
    {
      "name": "shrub-l2",
      "mesh": 2,
      "translation": [
        -37.5,
        0.35,
        -21
      ],
      "scale": [
        2.0999999999999943,
        0.7,
        2.1000000000000014
      ]
    },
    {
      "name": "shrub-l3",
      "mesh": 2,
      "translation": [
        -41.5,
        0.475,
        -30.6
      ],
      "scale": [
        1.5,
        0.95,
        1.5
      ]
    },
    {
      "name": "shrub-l4",
      "mesh": 2,
      "translation": [
        -25.5,
        0.35,
        -40.2
      ],
      "scale": [
        1.7999999999999972,
        0.7,
        1.8000000000000043
      ]
    },
    {
      "name": "shrub-l5",
      "mesh": 2,
      "translation": [
        -29.5,
        0.475,
        -49.8
      ],
      "scale": [
        2.1000000000000014,
        0.95,
        2.1000000000000014
      ]
    },
    {
      "name": "shrub-l6",
      "mesh": 2,
      "translation": [
        -33.5,
        0.35,
        -59.4
      ],
      "scale": [
        1.5,
        0.7,
        1.5
      ]
    },
    {
      "name": "shrub-l7",
      "mesh": 2,
      "translation": [
        -37.5,
        0.475,
        -69
      ],
      "scale": [
        1.7999999999999972,
        0.95,
        1.8000000000000114
      ]
    },
    {
      "name": "shrub-l8",
      "mesh": 2,
      "translation": [
        -41.5,
        0.35,
        -78.6
      ],
      "scale": [
        2.0999999999999943,
        0.7,
        2.1000000000000085
      ]
    },
    {
      "name": "shrub-l9",
      "mesh": 2,
      "translation": [
        -25.5,
        0.475,
        -88.2
      ],
      "scale": [
        1.5,
        0.95,
        1.5
      ]
    },
    {
      "name": "shrub-r1",
      "mesh": 2,
      "translation": [
        24.5,
        0.375,
        -7
      ],
      "scale": [
        1.6000000000000014,
        0.75,
        1.5999999999999996
      ]
    },
    {
      "name": "shrub-r10",
      "mesh": 2,
      "translation": [
        41.3,
        0.5,
        -93.4
      ],
      "scale": [
        1.6000000000000014,
        1,
        1.6000000000000085
      ]
    },
    {
      "name": "shrub-r11",
      "mesh": 2,
      "translation": [
        24.505000000000003,
        0.375,
        -102.995
      ],
      "scale": [
        1.9499999999999993,
        0.75,
        1.9500000000000028
      ]
    },
    {
      "name": "shrub-r12",
      "mesh": 2,
      "translation": [
        28.700000000000003,
        0.5,
        -112.6
      ],
      "scale": [
        2.3000000000000007,
        1,
        2.299999999999997
      ]
    },
    {
      "name": "shrub-r13",
      "mesh": 2,
      "translation": [
        32.900000000000006,
        0.375,
        -122.2
      ],
      "scale": [
        1.6000000000000014,
        0.75,
        1.5999999999999943
      ]
    },
    {
      "name": "shrub-r14",
      "mesh": 2,
      "translation": [
        37.105000000000004,
        0.5,
        -131.8
      ],
      "scale": [
        1.9499999999999957,
        1,
        1.9399999999999977
      ]
    },
    {
      "name": "shrub-r2",
      "mesh": 2,
      "translation": [
        28.705,
        0.5,
        -16.605
      ],
      "scale": [
        1.9499999999999993,
        1,
        1.9499999999999975
      ]
    },
    {
      "name": "shrub-r3",
      "mesh": 2,
      "translation": [
        32.9,
        0.375,
        -26.200000000000003
      ],
      "scale": [
        2.299999999999997,
        0.75,
        2.3000000000000007
      ]
    },
    {
      "name": "shrub-r4",
      "mesh": 2,
      "translation": [
        37.099999999999994,
        0.5,
        -35.8
      ],
      "scale": [
        1.6000000000000014,
        1,
        1.6000000000000014
      ]
    },
    {
      "name": "shrub-r5",
      "mesh": 2,
      "translation": [
        41.3,
        0.375,
        -45.394999999999996
      ],
      "scale": [
        1.9600000000000009,
        0.75,
        1.9499999999999957
      ]
    },
    {
      "name": "shrub-r6",
      "mesh": 2,
      "translation": [
        24.5,
        0.5,
        -55
      ],
      "scale": [
        2.299999999999997,
        1,
        2.299999999999997
      ]
    },
    {
      "name": "shrub-r7",
      "mesh": 2,
      "translation": [
        28.7,
        0.375,
        -64.6
      ],
      "scale": [
        1.6000000000000014,
        0.75,
        1.6000000000000085
      ]
    },
    {
      "name": "shrub-r8",
      "mesh": 2,
      "translation": [
        32.900000000000006,
        0.5,
        -74.2
      ],
      "scale": [
        1.9600000000000009,
        1,
        1.9399999999999977
      ]
    },
    {
      "name": "shrub-r9",
      "mesh": 2,
      "translation": [
        37.1,
        0.375,
        -83.80000000000001
      ],
      "scale": [
        2.299999999999997,
        0.75,
        2.299999999999997
      ]
    },
    {
      "name": "tree-l1-trunk",
      "mesh": 3,
      "translation": [
        -38,
        1.765,
        -15.2
      ],
      "scale": [
        0.4399999999999977,
        3.53,
        0.4399999999999995
      ]
    },
    {
      "name": "tree-l1-canopy",
      "mesh": 4,
      "translation": [
        -38,
        4.135,
        -15.200000000000001
      ],
      "scale": [
        2.299999999999997,
        3.1300000000000003,
        2.3000000000000007
      ]
    },
    {
      "name": "tree-l10-trunk",
      "mesh": 3,
      "translation": [
        -46.5,
        1.765,
        -112.4
      ],
      "scale": [
        0.4399999999999977,
        3.53,
        0.4399999999999977
      ]
    },
    {
      "name": "tree-l10-canopy",
      "mesh": 4,
      "translation": [
        -46.5,
        4.135,
        -112.4
      ],
      "scale": [
        2.299999999999997,
        3.1300000000000003,
        2.299999999999997
      ]
    },
    {
      "name": "tree-l11-trunk",
      "mesh": 3,
      "translation": [
        -52,
        1.3,
        -123.2
      ],
      "scale": [
        0.4399999999999977,
        2.6,
        0.4399999999999977
      ]
    },
    {
      "name": "tree-l11-canopy",
      "mesh": 4,
      "translation": [
        -52,
        3.045,
        -123.19999999999999
      ],
      "scale": [
        2.299999999999997,
        2.3100000000000005,
        2.299999999999997
      ]
    },
    {
      "name": "tree-l12-trunk",
      "mesh": 3,
      "translation": [
        -32.5,
        1.535,
        -134
      ],
      "scale": [
        0.4399999999999977,
        3.07,
        0.4399999999999977
      ]
    },
    {
      "name": "tree-l12-canopy",
      "mesh": 4,
      "translation": [
        -32.5,
        3.59,
        -134
      ],
      "scale": [
        2.299999999999997,
        2.72,
        2.3000000000000114
      ]
    },
    {
      "name": "tree-l2-trunk",
      "mesh": 3,
      "translation": [
        -46.5,
        1.3,
        -26
      ],
      "scale": [
        0.4399999999999977,
        2.6,
        0.4399999999999977
      ]
    },
    {
      "name": "tree-l2-canopy",
      "mesh": 4,
      "translation": [
        -46.5,
        3.045,
        -26
      ],
      "scale": [
        2.299999999999997,
        2.3100000000000005,
        2.299999999999997
      ]
    },
    {
      "name": "tree-l3-trunk",
      "mesh": 3,
      "translation": [
        -52,
        1.535,
        -36.8
      ],
      "scale": [
        0.4399999999999977,
        3.07,
        0.44000000000000483
      ]
    },
    {
      "name": "tree-l3-canopy",
      "mesh": 4,
      "translation": [
        -52,
        3.59,
        -36.8
      ],
      "scale": [
        2.299999999999997,
        2.72,
        2.3000000000000043
      ]
    },
    {
      "name": "tree-l4-trunk",
      "mesh": 3,
      "translation": [
        -32.5,
        1.765,
        -47.6
      ],
      "scale": [
        0.4399999999999977,
        3.53,
        0.4399999999999977
      ]
    },
    {
      "name": "tree-l4-canopy",
      "mesh": 4,
      "translation": [
        -32.5,
        4.135,
        -47.6
      ],
      "scale": [
        2.299999999999997,
        3.1300000000000003,
        2.299999999999997
      ]
    },
    {
      "name": "tree-l5-trunk",
      "mesh": 3,
      "translation": [
        -38,
        1.3,
        -58.4
      ],
      "scale": [
        0.4399999999999977,
        2.6,
        0.4399999999999977
      ]
    },
    {
      "name": "tree-l5-canopy",
      "mesh": 4,
      "translation": [
        -38,
        3.045,
        -58.4
      ],
      "scale": [
        2.299999999999997,
        2.3100000000000005,
        2.299999999999997
      ]
    },
    {
      "name": "tree-l6-trunk",
      "mesh": 3,
      "translation": [
        -46.5,
        1.535,
        -69.2
      ],
      "scale": [
        0.4399999999999977,
        3.07,
        0.4399999999999977
      ]
    },
    {
      "name": "tree-l6-canopy",
      "mesh": 4,
      "translation": [
        -46.5,
        3.59,
        -69.19999999999999
      ],
      "scale": [
        2.299999999999997,
        2.72,
        2.299999999999997
      ]
    },
    {
      "name": "tree-l7-trunk",
      "mesh": 3,
      "translation": [
        -52,
        1.765,
        -80
      ],
      "scale": [
        0.4399999999999977,
        3.53,
        0.4399999999999977
      ]
    },
    {
      "name": "tree-l7-canopy",
      "mesh": 4,
      "translation": [
        -52,
        4.135,
        -80
      ],
      "scale": [
        2.299999999999997,
        3.1300000000000003,
        2.3000000000000114
      ]
    },
    {
      "name": "tree-l8-trunk",
      "mesh": 3,
      "translation": [
        -32.5,
        1.3,
        -90.8
      ],
      "scale": [
        0.4399999999999977,
        2.6,
        0.4399999999999977
      ]
    },
    {
      "name": "tree-l8-canopy",
      "mesh": 4,
      "translation": [
        -32.5,
        3.045,
        -90.80000000000001
      ],
      "scale": [
        2.299999999999997,
        2.3100000000000005,
        2.299999999999997
      ]
    },
    {
      "name": "tree-l9-trunk",
      "mesh": 3,
      "translation": [
        -38,
        1.535,
        -101.6
      ],
      "scale": [
        0.4399999999999977,
        3.07,
        0.4399999999999977
      ]
    },
    {
      "name": "tree-l9-canopy",
      "mesh": 4,
      "translation": [
        -38,
        3.59,
        -101.6
      ],
      "scale": [
        2.299999999999997,
        2.72,
        2.299999999999997
      ]
    },
    {
      "name": "tree-r1-trunk",
      "mesh": 3,
      "translation": [
        30,
        1.365,
        -12
      ],
      "scale": [
        0.4399999999999977,
        2.73,
        0.4400000000000013
      ]
    },
    {
      "name": "tree-r1-canopy",
      "mesh": 4,
      "translation": [
        30,
        3.1900000000000004,
        -12
      ],
      "scale": [
        2.299999999999997,
        2.4200000000000004,
        2.3000000000000007
      ]
    },
    {
      "name": "tree-r10-trunk",
      "mesh": 3,
      "translation": [
        38.8,
        1.365,
        -109.2
      ],
      "scale": [
        0.44000000000000483,
        2.73,
        0.4399999999999977
      ]
    },
    {
      "name": "tree-r10-canopy",
      "mesh": 4,
      "translation": [
        38.8,
        3.1900000000000004,
        -109.19999999999999
      ],
      "scale": [
        2.3000000000000043,
        2.4200000000000004,
        2.299999999999997
      ]
    },
    {
      "name": "tree-r11-trunk",
      "mesh": 3,
      "translation": [
        44,
        1.58,
        -120
      ],
      "scale": [
        0.4399999999999977,
        3.16,
        0.4399999999999977
      ]
    },
    {
      "name": "tree-r11-canopy",
      "mesh": 4,
      "translation": [
        44,
        3.6999999999999997,
        -120
      ],
      "scale": [
        2.299999999999997,
        2.8,
        2.3000000000000114
      ]
    },
    {
      "name": "tree-r12-trunk",
      "mesh": 3,
      "translation": [
        52.8,
        1.8,
        -130.8
      ],
      "scale": [
        0.44000000000000483,
        3.6,
        0.4399999999999977
      ]
    },
    {
      "name": "tree-r12-canopy",
      "mesh": 4,
      "translation": [
        52.8,
        4.205,
        -130.8
      ],
      "scale": [
        2.3000000000000043,
        3.19,
        2.299999999999983
      ]
    },
    {
      "name": "tree-r2-trunk",
      "mesh": 3,
      "translation": [
        38.8,
        1.58,
        -22.799999999999997
      ],
      "scale": [
        0.44000000000000483,
        3.16,
        0.4400000000000013
      ]
    },
    {
      "name": "tree-r2-canopy",
      "mesh": 4,
      "translation": [
        38.8,
        3.6999999999999997,
        -22.799999999999997
      ],
      "scale": [
        2.3000000000000043,
        2.8,
        2.3000000000000007
      ]
    },
    {
      "name": "tree-r3-trunk",
      "mesh": 3,
      "translation": [
        44,
        1.8,
        -33.6
      ],
      "scale": [
        0.4399999999999977,
        3.6,
        0.4399999999999977
      ]
    },
    {
      "name": "tree-r3-canopy",
      "mesh": 4,
      "translation": [
        44,
        4.205,
        -33.6
      ],
      "scale": [
        2.299999999999997,
        3.19,
        2.299999999999997
      ]
    },
    {
      "name": "tree-r4-trunk",
      "mesh": 3,
      "translation": [
        52.8,
        1.365,
        -44.4
      ],
      "scale": [
        0.44000000000000483,
        2.73,
        0.4399999999999977
      ]
    },
    {
      "name": "tree-r4-canopy",
      "mesh": 4,
      "translation": [
        52.8,
        3.1900000000000004,
        -44.4
      ],
      "scale": [
        2.3000000000000043,
        2.4200000000000004,
        2.299999999999997
      ]
    },
    {
      "name": "tree-r5-trunk",
      "mesh": 3,
      "translation": [
        30,
        1.58,
        -55.2
      ],
      "scale": [
        0.4399999999999977,
        3.16,
        0.44000000000000483
      ]
    },
    {
      "name": "tree-r5-canopy",
      "mesh": 4,
      "translation": [
        30,
        3.6999999999999997,
        -55.2
      ],
      "scale": [
        2.299999999999997,
        2.8,
        2.3000000000000043
      ]
    },
    {
      "name": "tree-r6-trunk",
      "mesh": 3,
      "translation": [
        38.8,
        1.8,
        -66
      ],
      "scale": [
        0.44000000000000483,
        3.6,
        0.4399999999999977
      ]
    },
    {
      "name": "tree-r6-canopy",
      "mesh": 4,
      "translation": [
        38.8,
        4.205,
        -66
      ],
      "scale": [
        2.3000000000000043,
        3.19,
        2.3000000000000114
      ]
    },
    {
      "name": "tree-r7-trunk",
      "mesh": 3,
      "translation": [
        44,
        1.365,
        -76.8
      ],
      "scale": [
        0.4399999999999977,
        2.73,
        0.4399999999999977
      ]
    },
    {
      "name": "tree-r7-canopy",
      "mesh": 4,
      "translation": [
        44,
        3.1900000000000004,
        -76.80000000000001
      ],
      "scale": [
        2.299999999999997,
        2.4200000000000004,
        2.299999999999997
      ]
    },
    {
      "name": "tree-r8-trunk",
      "mesh": 3,
      "translation": [
        52.8,
        1.58,
        -87.6
      ],
      "scale": [
        0.44000000000000483,
        3.16,
        0.4399999999999977
      ]
    },
    {
      "name": "tree-r8-canopy",
      "mesh": 4,
      "translation": [
        52.8,
        3.6999999999999997,
        -87.6
      ],
      "scale": [
        2.3000000000000043,
        2.8,
        2.299999999999997
      ]
    },
    {
      "name": "tree-r9-trunk",
      "mesh": 3,
      "translation": [
        30,
        1.8,
        -98.4
      ],
      "scale": [
        0.4399999999999977,
        3.6,
        0.4399999999999977
      ]
    },
    {
      "name": "tree-r9-canopy",
      "mesh": 4,
      "translation": [
        30,
        4.205,
        -98.4
      ],
      "scale": [
        2.299999999999997,
        3.19,
        2.299999999999997
      ]
    },
    {
      "name": "ground-base",
      "mesh": 0,
      "translation": [
        0,
        -0.175,
        -78
      ],
      "scale": [
        172,
        0.35,
        184
      ]
    },
    {
      "name": "corridor-flat-earth",
      "mesh": 7,
      "translation": [
        0,
        0.02,
        -68.5
      ],
      "scale": [
        42,
        0.04,
        153
      ]
    },
    {
      "name": "left-low-hill",
      "mesh": 0,
      "translation": [
        -55,
        0.07499999999999998,
        -75
      ],
      "scale": [
        62,
        0.55,
        160
      ]
    },
    {
      "name": "right-low-hill",
      "mesh": 0,
      "translation": [
        55,
        0.07499999999999998,
        -75
      ],
      "scale": [
        62,
        0.55,
        160
      ]
    },
    {
      "name": "wheat-row-r1",
      "mesh": 1,
      "translation": [
        24.1,
        0.44,
        -142.1
      ],
      "scale": [
        2.1999999999999993,
        0.82,
        5.800000000000011
      ]
    },
    {
      "name": "wheat-row-l1",
      "mesh": 1,
      "translation": [
        -33.1,
        0.44,
        -144.8
      ],
      "scale": [
        2.200000000000003,
        0.82,
        5.799999999999983
      ]
    },
    {
      "name": "wheat-row-r2",
      "mesh": 1,
      "translation": [
        28.6,
        0.5,
        -133.9
      ],
      "scale": [
        2.1999999999999993,
        0.94,
        5.800000000000011
      ]
    },
    {
      "name": "wheat-row-l2",
      "mesh": 1,
      "translation": [
        -37.6,
        0.5,
        -136.6
      ],
      "scale": [
        2.200000000000003,
        0.94,
        5.800000000000011
      ]
    },
    {
      "name": "wheat-row-r3",
      "mesh": 1,
      "translation": [
        33.1,
        0.56,
        -125.69999999999999
      ],
      "scale": [
        2.200000000000003,
        1.06,
        5.799999999999997
      ]
    },
    {
      "name": "wheat-row-l3",
      "mesh": 1,
      "translation": [
        -24.1,
        0.56,
        -128.4
      ],
      "scale": [
        2.1999999999999993,
        1.06,
        5.800000000000011
      ]
    },
    {
      "name": "wheat-row-r4",
      "mesh": 1,
      "translation": [
        37.6,
        0.44,
        -117.5
      ],
      "scale": [
        2.200000000000003,
        0.82,
        5.800000000000011
      ]
    },
    {
      "name": "wheat-row-l4",
      "mesh": 1,
      "translation": [
        -28.6,
        0.44,
        -120.19999999999999
      ],
      "scale": [
        2.1999999999999993,
        0.82,
        5.799999999999997
      ]
    },
    {
      "name": "wheat-row-r5",
      "mesh": 1,
      "translation": [
        24.1,
        0.5,
        -109.30000000000001
      ],
      "scale": [
        2.1999999999999993,
        0.94,
        5.799999999999997
      ]
    },
    {
      "name": "wheat-row-l5",
      "mesh": 1,
      "translation": [
        -33.1,
        0.5,
        -112
      ],
      "scale": [
        2.200000000000003,
        0.94,
        5.800000000000011
      ]
    },
    {
      "name": "wheat-row-r6",
      "mesh": 1,
      "translation": [
        28.6,
        0.56,
        -101.1
      ],
      "scale": [
        2.1999999999999993,
        1.06,
        5.799999999999997
      ]
    },
    {
      "name": "wheat-row-l6",
      "mesh": 1,
      "translation": [
        -37.6,
        0.56,
        -103.80000000000001
      ],
      "scale": [
        2.200000000000003,
        1.06,
        5.799999999999997
      ]
    },
    {
      "name": "wheat-row-r7",
      "mesh": 1,
      "translation": [
        33.1,
        0.44,
        -92.9
      ],
      "scale": [
        2.200000000000003,
        0.82,
        5.799999999999997
      ]
    },
    {
      "name": "wheat-row-l7",
      "mesh": 1,
      "translation": [
        -24.1,
        0.44,
        -95.6
      ],
      "scale": [
        2.1999999999999993,
        0.82,
        5.799999999999997
      ]
    },
    {
      "name": "wheat-row-r8",
      "mesh": 1,
      "translation": [
        37.6,
        0.5,
        -84.69999999999999
      ],
      "scale": [
        2.200000000000003,
        0.94,
        5.799999999999997
      ]
    },
    {
      "name": "wheat-row-l8",
      "mesh": 1,
      "translation": [
        -28.6,
        0.5,
        -87.4
      ],
      "scale": [
        2.1999999999999993,
        0.94,
        5.799999999999997
      ]
    },
    {
      "name": "wheat-row-r9",
      "mesh": 1,
      "translation": [
        24.1,
        0.56,
        -76.5
      ],
      "scale": [
        2.1999999999999993,
        1.06,
        5.800000000000011
      ]
    },
    {
      "name": "wheat-row-l9",
      "mesh": 1,
      "translation": [
        -33.1,
        0.56,
        -79.19999999999999
      ],
      "scale": [
        2.200000000000003,
        1.06,
        5.799999999999997
      ]
    },
    {
      "name": "wheat-row-r10",
      "mesh": 1,
      "translation": [
        28.6,
        0.44,
        -68.30000000000001
      ],
      "scale": [
        2.1999999999999993,
        0.82,
        5.799999999999997
      ]
    },
    {
      "name": "wheat-row-l10",
      "mesh": 1,
      "translation": [
        -37.6,
        0.44,
        -71
      ],
      "scale": [
        2.200000000000003,
        0.82,
        5.800000000000011
      ]
    },
    {
      "name": "wheat-row-r11",
      "mesh": 1,
      "translation": [
        33.1,
        0.5,
        -60.1
      ],
      "scale": [
        2.200000000000003,
        0.94,
        5.799999999999997
      ]
    },
    {
      "name": "wheat-row-l11",
      "mesh": 1,
      "translation": [
        -24.1,
        0.5,
        -62.8
      ],
      "scale": [
        2.1999999999999993,
        0.94,
        5.800000000000004
      ]
    },
    {
      "name": "wheat-row-r12",
      "mesh": 1,
      "translation": [
        37.6,
        0.56,
        -51.9
      ],
      "scale": [
        2.200000000000003,
        1.06,
        5.799999999999997
      ]
    },
    {
      "name": "wheat-row-l12",
      "mesh": 1,
      "translation": [
        -28.6,
        0.56,
        -54.6
      ],
      "scale": [
        2.1999999999999993,
        1.06,
        5.799999999999997
      ]
    },
    {
      "name": "wheat-row-r13",
      "mesh": 1,
      "translation": [
        24.1,
        0.44,
        -43.7
      ],
      "scale": [
        2.1999999999999993,
        0.82,
        5.800000000000004
      ]
    },
    {
      "name": "wheat-row-l13",
      "mesh": 1,
      "translation": [
        -33.1,
        0.44,
        -46.4
      ],
      "scale": [
        2.200000000000003,
        0.82,
        5.799999999999997
      ]
    },
    {
      "name": "wheat-row-r14",
      "mesh": 1,
      "translation": [
        28.6,
        0.5,
        -35.5
      ],
      "scale": [
        2.1999999999999993,
        0.94,
        5.799999999999997
      ]
    },
    {
      "name": "wheat-row-l14",
      "mesh": 1,
      "translation": [
        -37.6,
        0.5,
        -38.2
      ],
      "scale": [
        2.200000000000003,
        0.94,
        5.800000000000004
      ]
    },
    {
      "name": "wheat-row-r15",
      "mesh": 1,
      "translation": [
        33.1,
        0.56,
        -27.299999999999997
      ],
      "scale": [
        2.200000000000003,
        1.06,
        5.800000000000001
      ]
    },
    {
      "name": "wheat-row-l15",
      "mesh": 1,
      "translation": [
        -24.1,
        0.56,
        -30
      ],
      "scale": [
        2.1999999999999993,
        1.06,
        5.799999999999997
      ]
    },
    {
      "name": "wheat-row-r16",
      "mesh": 1,
      "translation": [
        37.6,
        0.44,
        -19.1
      ],
      "scale": [
        2.200000000000003,
        0.82,
        5.800000000000001
      ]
    },
    {
      "name": "wheat-row-l16",
      "mesh": 1,
      "translation": [
        -28.6,
        0.44,
        -21.799999999999997
      ],
      "scale": [
        2.1999999999999993,
        0.82,
        5.800000000000001
      ]
    },
    {
      "name": "wheat-row-r17",
      "mesh": 1,
      "translation": [
        24.1,
        0.5,
        -10.9
      ],
      "scale": [
        2.1999999999999993,
        0.94,
        5.800000000000001
      ]
    },
    {
      "name": "wheat-row-l17",
      "mesh": 1,
      "translation": [
        -33.1,
        0.5,
        -13.6
      ],
      "scale": [
        2.200000000000003,
        0.94,
        5.800000000000001
      ]
    },
    {
      "name": "wheat-row-r18",
      "mesh": 1,
      "translation": [
        28.6,
        0.56,
        -2.6999999999999997
      ],
      "scale": [
        2.1999999999999993,
        1.06,
        5.8
      ]
    },
    {
      "name": "wheat-row-l18",
      "mesh": 1,
      "translation": [
        -37.6,
        0.56,
        -5.4
      ],
      "scale": [
        2.200000000000003,
        1.06,
        5.800000000000001
      ]
    },
    {
      "name": "mountain-left",
      "mesh": 6,
      "translation": [
        -64,
        9.5,
        -170.5
      ],
      "scale": [
        80,
        19,
        9
      ]
    },
    {
      "name": "mountain-center",
      "mesh": 6,
      "translation": [
        0,
        7.75,
        -172.5
      ],
      "scale": [
        80,
        15.5,
        9
      ]
    },
    {
      "name": "mountain-right",
      "mesh": 6,
      "translation": [
        64,
        10.75,
        -170.5
      ],
      "scale": [
        80,
        21.5,
        9
      ]
    }
  ],
  "meshes": [
    {
      "name": "unit-cube-ground",
      "primitives": [
        {
          "attributes": {
            "POSITION": 0,
            "NORMAL": 1
          },
          "indices": 2,
          "material": 0
        }
      ]
    },
    {
      "name": "unit-cube-wheat",
      "primitives": [
        {
          "attributes": {
            "POSITION": 0,
            "NORMAL": 1
          },
          "indices": 2,
          "material": 1
        }
      ]
    },
    {
      "name": "unit-cube-shrub",
      "primitives": [
        {
          "attributes": {
            "POSITION": 0,
            "NORMAL": 1
          },
          "indices": 2,
          "material": 2
        }
      ]
    },
    {
      "name": "unit-cube-tree-trunk",
      "primitives": [
        {
          "attributes": {
            "POSITION": 0,
            "NORMAL": 1
          },
          "indices": 2,
          "material": 3
        }
      ]
    },
    {
      "name": "unit-cube-tree-canopy",
      "primitives": [
        {
          "attributes": {
            "POSITION": 0,
            "NORMAL": 1
          },
          "indices": 2,
          "material": 4
        }
      ]
    },
    {
      "name": "unit-cube-hay",
      "primitives": [
        {
          "attributes": {
            "POSITION": 0,
            "NORMAL": 1
          },
          "indices": 2,
          "material": 5
        }
      ]
    },
    {
      "name": "unit-cube-mountain",
      "primitives": [
        {
          "attributes": {
            "POSITION": 0,
            "NORMAL": 1
          },
          "indices": 2,
          "material": 6
        }
      ]
    },
    {
      "name": "unit-cube-dirt",
      "primitives": [
        {
          "attributes": {
            "POSITION": 0,
            "NORMAL": 1
          },
          "indices": 2,
          "material": 7
        }
      ]
    }
  ],
  "materials": [
    {
      "name": "mat-ground",
      "pbrMetallicRoughness": {
        "baseColorFactor": [
          0.36,
          0.42,
          0.22,
          1
        ],
        "metallicFactor": 0,
        "roughnessFactor": 0.88
      }
    },
    {
      "name": "mat-wheat",
      "pbrMetallicRoughness": {
        "baseColorFactor": [
          0.77,
          0.62,
          0.3,
          1
        ],
        "metallicFactor": 0,
        "roughnessFactor": 0.88
      }
    },
    {
      "name": "mat-shrub",
      "pbrMetallicRoughness": {
        "baseColorFactor": [
          0.2,
          0.34,
          0.16,
          1
        ],
        "metallicFactor": 0,
        "roughnessFactor": 0.88
      }
    },
    {
      "name": "mat-tree-trunk",
      "pbrMetallicRoughness": {
        "baseColorFactor": [
          0.32,
          0.22,
          0.13,
          1
        ],
        "metallicFactor": 0,
        "roughnessFactor": 0.88
      }
    },
    {
      "name": "mat-tree-canopy",
      "pbrMetallicRoughness": {
        "baseColorFactor": [
          0.18,
          0.32,
          0.17,
          1
        ],
        "metallicFactor": 0,
        "roughnessFactor": 0.88
      }
    },
    {
      "name": "mat-hay",
      "pbrMetallicRoughness": {
        "baseColorFactor": [
          0.72,
          0.55,
          0.24,
          1
        ],
        "metallicFactor": 0,
        "roughnessFactor": 0.88
      }
    },
    {
      "name": "mat-mountain",
      "pbrMetallicRoughness": {
        "baseColorFactor": [
          0.55,
          0.62,
          0.68,
          1
        ],
        "metallicFactor": 0,
        "roughnessFactor": 0.88
      }
    },
    {
      "name": "mat-dirt",
      "pbrMetallicRoughness": {
        "baseColorFactor": [
          0.42,
          0.34,
          0.22,
          1
        ],
        "metallicFactor": 0,
        "roughnessFactor": 0.88
      }
    }
  ],
  "buffers": [
    {
      "byteLength": 648,
      "uri": "data:application/octet-stream;base64,"
    }
  ],
  "bufferViews": [
    {
      "buffer": 0,
      "byteOffset": 0,
      "byteLength": 288,
      "target": 34962
    },
    {
      "buffer": 0,
      "byteOffset": 288,
      "byteLength": 288,
      "target": 34962
    },
    {
      "buffer": 0,
      "byteOffset": 576,
      "byteLength": 72,
      "target": 34963
    }
  ],
  "accessors": [
    {
      "bufferView": 0,
      "componentType": 5126,
      "count": 24,
      "type": "VEC3",
      "min": [
        -0.5,
        -0.5,
        -0.5
      ],
      "max": [
        0.5,
        0.5,
        0.5
      ]
    },
    {
      "bufferView": 1,
      "componentType": 5126,
      "count": 24,
      "type": "VEC3"
    },
    {
      "bufferView": 2,
      "componentType": 5123,
      "count": 36,
      "type": "SCALAR"
    }
  ]
}
