{
  "asset": { "version": "2.0", "generator": "FPS_aim_analyst micro-flick corridor v3 (original geometry, CC0)", "copyright": "CC0 1.0 - original work, FPS_aim_analyst" }, "scene": 0,
  "scenes": [{ "name": "micro-flick-room-v3", "nodes": [0, 1, 2, 3, 4, 5, 6, 7, 8, 9, 10, 11, 12, 13, 14, 15, 16, 17, 18, 19, 20, 21, 22, 23, 24, 25, 26, 27, 28] }],
  "nodes": [
    { "name": "floor", "mesh": 0, "translation": [0, -4.06, 0], "scale": [20, 0.12, 52] }, { "name": "ceiling", "mesh": 2, "translation": [0, 8.06, 0], "scale": [20, 0.12, 52] }, { "name": "end-wall", "mesh": 1, "translation": [0, 2, -26.06], "scale": [20, 12, 0.12] },
    { "name": "side-panel-l-01", "mesh": 1, "translation": [-10.06, 2, -24], "scale": [0.12, 12, 3.92] }, { "name": "side-panel-l-02", "mesh": 1, "translation": [-10.06, 2, -20], "scale": [0.12, 12, 3.92] }, { "name": "side-panel-l-03", "mesh": 1, "translation": [-10.06, 2, -16], "scale": [0.12, 12, 3.92] }, { "name": "side-panel-l-04", "mesh": 1, "translation": [-10.06, 2, -12], "scale": [0.12, 12, 3.92] }, { "name": "side-panel-l-05", "mesh": 1, "translation": [-10.06, 2, -8], "scale": [0.12, 12, 3.92] }, { "name": "side-panel-l-06", "mesh": 1, "translation": [-10.06, 2, -4], "scale": [0.12, 12, 3.92] }, { "name": "side-panel-l-07", "mesh": 1, "translation": [-10.06, 2, 0], "scale": [0.12, 12, 3.92] }, { "name": "side-panel-l-08", "mesh": 1, "translation": [-10.06, 2, 4], "scale": [0.12, 12, 3.92] }, { "name": "side-panel-l-09", "mesh": 1, "translation": [-10.06, 2, 8], "scale": [0.12, 12, 3.92] }, { "name": "side-panel-l-10", "mesh": 1, "translation": [-10.06, 2, 12], "scale": [0.12, 12, 3.92] }, { "name": "side-panel-l-11", "mesh": 1, "translation": [-10.06, 2, 16], "scale": [0.12, 12, 3.92] }, { "name": "side-panel-l-12", "mesh": 1, "translation": [-10.06, 2, 20], "scale": [0.12, 12, 3.92] }, { "name": "side-panel-l-13", "mesh": 1, "translation": [-10.06, 2, 24], "scale": [0.12, 12, 3.92] },
    { "name": "side-panel-r-01", "mesh": 1, "translation": [10.06, 2, -24], "scale": [0.12, 12, 3.92] }, { "name": "side-panel-r-02", "mesh": 1, "translation": [10.06, 2, -20], "scale": [0.12, 12, 3.92] }, { "name": "side-panel-r-03", "mesh": 1, "translation": [10.06, 2, -16], "scale": [0.12, 12, 3.92] }, { "name": "side-panel-r-04", "mesh": 1, "translation": [10.06, 2, -12], "scale": [0.12, 12, 3.92] }, { "name": "side-panel-r-05", "mesh": 1, "translation": [10.06, 2, -8], "scale": [0.12, 12, 3.92] }, { "name": "side-panel-r-06", "mesh": 1, "translation": [10.06, 2, -4], "scale": [0.12, 12, 3.92] }, { "name": "side-panel-r-07", "mesh": 1, "translation": [10.06, 2, 0], "scale": [0.12, 12, 3.92] }, { "name": "side-panel-r-08", "mesh": 1, "translation": [10.06, 2, 4], "scale": [0.12, 12, 3.92] }, { "name": "side-panel-r-09", "mesh": 1, "translation": [10.06, 2, 8], "scale": [0.12, 12, 3.92] }, { "name": "side-panel-r-10", "mesh": 1, "translation": [10.06, 2, 12], "scale": [0.12, 12, 3.92] }, { "name": "side-panel-r-11", "mesh": 1, "translation": [10.06, 2, 16], "scale": [0.12, 12, 3.92] }, { "name": "side-panel-r-12", "mesh": 1, "translation": [10.06, 2, 20], "scale": [0.12, 12, 3.92] }, { "name": "side-panel-r-13", "mesh": 1, "translation": [10.06, 2, 24], "scale": [0.12, 12, 3.92] }
  ],
  "meshes": [{ "name": "unit-cube-floor", "primitives": [{ "attributes": { "POSITION": 0, "NORMAL": 1 }, "indices": 2, "material": 0 }] }, { "name": "unit-cube-wall", "primitives": [{ "attributes": { "POSITION": 0, "NORMAL": 1 }, "indices": 2, "material": 1 }] }, { "name": "unit-cube-ceiling", "primitives": [{ "attributes": { "POSITION": 0, "NORMAL": 1 }, "indices": 2, "material": 2 }] }],
  "materials": [{ "name": "mat-floor", "pbrMetallicRoughness": { "baseColorFactor": [0.82, 0.82, 0.8, 1], "metallicFactor": 0, "roughnessFactor": 0.95 } }, { "name": "mat-wall", "pbrMetallicRoughness": { "baseColorFactor": [0.91, 0.91, 0.89, 1], "metallicFactor": 0, "roughnessFactor": 0.9 } }, { "name": "mat-ceiling", "pbrMetallicRoughness": { "baseColorFactor": [0.3, 0.32, 0.35, 1], "metallicFactor": 0, "roughnessFactor": 0.95 } }],
  "buffers": [{ "byteLength": 648, "uri": "data:application/octet-stream;base64," }], "bufferViews": [{ "buffer": 0, "byteOffset": 0, "byteLength": 288, "target": 34962 }, { "buffer": 0, "byteOffset": 288, "byteLength": 288, "target": 34962 }, { "buffer": 0, "byteOffset": 576, "byteLength": 72, "target": 34963 }], "accessors": [{ "bufferView": 0, "componentType": 5126, "count": 24, "type": "VEC3", "min": [-0.5, -0.5, -0.5], "max": [0.5, 0.5, 0.5] }, { "bufferView": 1, "componentType": 5126, "count": 24, "type": "VEC3" }, { "bufferView": 2, "componentType": 5123, "count": 36, "type": "SCALAR" }]
}
