{
  "asset": {
    "version": "2.0",
    "generator": "FPS_aim_analyst WP-45 T2 peek-ad-corridor generator (original geometry, CC0)",
    "copyright": "CC0 1.0 - original work, FPS_aim_analyst"
  },
  "scene": 0,
  "scenes": [
    {
      "name": "peek-ad-corridor",
      "nodes": [
        0,
        1,
        2
      ]
    }
  ],
  "nodes": [
    {
      "name": "cover-wall-l",
      "mesh": 0,
      "translation": [
        -0.6,
        1.5,
        -4
      ],
      "scale": [
        1.2,
        3,
        1
      ]
    },
    {
      "name": "cover-wall-r",
      "mesh": 0,
      "translation": [
        0.6,
        1.5,
        -4
      ],
      "scale": [
        1.2,
        3,
        1
      ]
    },
    {
      "name": "ground",
      "mesh": 1,
      "translation": [
        0,
        -0.04,
        -5
      ],
      "scale": [
        12,
        0.08,
        14
      ]
    }
  ],
  "meshes": [
    {
      "name": "unit-cube-wall",
      "primitives": [
        {
          "attributes": {
            "POSITION": 0,
            "NORMAL": 1
          },
          "indices": 2,
          "material": 0
        }
      ]
    },
    {
      "name": "unit-cube-ground",
      "primitives": [
        {
          "attributes": {
            "POSITION": 0,
            "NORMAL": 1
          },
          "indices": 2,
          "material": 1
        }
      ]
    }
  ],
  "materials": [
    {
      "name": "mat-wall",
      "pbrMetallicRoughness": {
        "baseColorFactor": [
          0.43,
          0.46,
          0.5,
          1
        ],
        "metallicFactor": 0,
        "roughnessFactor": 0.9
      }
    },
    {
      "name": "mat-ground",
      "pbrMetallicRoughness": {
        "baseColorFactor": [
          0.22,
          0.24,
          0.25,
          1
        ],
        "metallicFactor": 0,
        "roughnessFactor": 0.9
      }
    }
  ],
  "buffers": [
    {
      "byteLength": 648,
      "uri": "data:application/octet-stream;base64,"
    }
  ],
  "bufferViews": [
    {
      "buffer": 0,
      "byteOffset": 0,
      "byteLength": 288,
      "target": 34962
    },
    {
      "buffer": 0,
      "byteOffset": 288,
      "byteLength": 288,
      "target": 34962
    },
    {
      "buffer": 0,
      "byteOffset": 576,
      "byteLength": 72,
      "target": 34963
    }
  ],
  "accessors": [
    {
      "bufferView": 0,
      "componentType": 5126,
      "count": 24,
      "type": "VEC3",
      "min": [
        -0.5,
        -0.5,
        -0.5
      ],
      "max": [
        0.5,
        0.5,
        0.5
      ]
    },
    {
      "bufferView": 1,
      "componentType": 5126,
      "count": 24,
      "type": "VEC3"
    },
    {
      "bufferView": 2,
      "componentType": 5123,
      "count": 36,
      "type": "SCALAR"
    }
  ]
}
