<svg xmlns="http://www.w3.org/2000/svg" width="1200" height="360" viewBox="0 0 1200 360">
<rect width="100%" height="100%" fill="white" />
<rect x="142.70" y="36" width="426.81" height="288" fill="#0ea5e9" fill-opacity="0.18" />
<polyline points="36.00,324.00 51.24,316.06 66.49,324.00 81.73,324.00 96.97,324.00 112.22,324.00 127.46,320.03 142.70,312.10 157.95,292.01 173.19,276.22 188.43,244.25 203.68,232.65 218.92,216.79 234.16,189.09 249.41,165.28 264.65,236.70 279.89,145.44 295.14,89.74 310.38,101.45 325.62,89.01 340.86,36.00 356.11,75.84 371.35,83.69 386.59,59.52 401.84,228.37 417.08,128.42 432.32,140.64 447.57,156.45 462.81,188.45 478.05,188.04 493.30,199.86 508.54,271.76 523.78,240.22 539.03,247.60 554.27,279.59 569.51,295.91 584.76,304.14 600.00,311.44 615.24,316.06 630.49,316.06 645.73,316.06 660.97,320.03 676.22,320.03 691.46,324.00 706.70,320.03 721.95,324.00 737.19,320.03 752.43,324.00 767.68,324.00 782.92,316.06 798.16,320.03 813.41,311.44 828.65,307.62 843.89,312.08 859.14,311.44 874.38,316.06 889.62,307.62 904.86,300.17 920.11,295.91 935.35,268.25 950.59,268.25 965.84,256.01 981.08,231.87 996.32,243.67 1011.57,291.97 1026.81,235.80 1042.05,267.82 1057.30,280.12 1072.54,284.08 1087.78,299.84 1103.03,312.08 1118.27,315.12 1133.51,324.00 1148.76,320.03 1164.00,324.00" fill="none" stroke="#111827" stroke-width="2" />
<text x="36" y="22" font-family="sans-serif" font-size="14">peek 8: omega deg/s + seg-v1 segments</text>
</svg>
