<svg xmlns="http://www.w3.org/2000/svg" width="900" height="280" viewBox="0 0 900 280">
<rect width="100%" height="100%" fill="white" />
<rect x="36.00" y="36" width="121.76" height="208" fill="#9ca3af" fill-opacity="0.18" />
<rect x="157.76" y="36" width="340.94" height="208" fill="#0ea5e9" fill-opacity="0.18" />
<rect x="498.71" y="36" width="363.63" height="208" fill="#22c55e" fill-opacity="0.18" />
<polyline points="36.00,244.00 48.18,244.00 60.35,244.00 72.53,244.00 84.71,244.00 96.88,244.00 109.06,244.00 121.24,240.59 133.41,233.78 145.59,237.18 157.76,226.96 169.94,212.58 182.12,202.54 194.29,185.66 206.47,155.13 218.65,131.33 230.82,117.91 243.00,97.42 255.18,94.05 267.35,59.94 279.53,49.72 291.71,59.94 303.88,36.00 316.06,39.49 328.24,39.40 340.41,63.33 352.59,49.61 364.76,59.83 376.94,87.18 389.12,53.10 401.29,93.99 413.47,114.48 425.65,134.88 437.82,141.75 450.00,158.79 462.18,172.42 474.35,192.76 486.53,196.28 498.71,226.96 510.88,220.14 523.06,236.38 535.24,244.00 547.41,244.00 559.59,244.00 571.76,244.00 583.94,244.00 596.12,244.00 608.29,244.00 620.47,244.00 632.65,244.00 644.82,244.00 657.00,240.59 669.18,244.00 681.35,244.00 693.53,244.00 705.71,244.00 717.88,244.00 730.06,240.59 742.24,240.59 754.41,233.77 766.59,233.77 778.76,223.55 790.94,219.90 803.12,223.27 815.29,223.27 827.47,230.37 839.65,239.18 851.82,244.00 864.00,244.00" fill="none" stroke="#111827" stroke-width="2" />
<line x1="316.06" y1="36" x2="316.06" y2="244" stroke="#dc2626" stroke-width="2" stroke-dasharray="4,3" />
<text x="36" y="20" font-family="sans-serif" font-size="13">counterstrafe_ad_v1-2026-08-07T09_18_05.631Z peek 11 (R): grey=REC blue=MR green=V red-dash=t_detect flags=none</text>
</svg>
