<svg xmlns="http://www.w3.org/2000/svg" width="1500" height="960" viewBox="0 0 1500 960">
<rect width="100%" height="100%" fill="white" />
<text x="20" y="28" font-family="sans-serif" font-size="17">Real 08:03 boundary fixture — 零 strafe 樣本:counter/release 錨點全缺</text>
<text x="20" y="50" font-family="sans-serif" font-size="12" fill="#475569">timeline-v1; each row is one [visible,nextVisible) peek</text>
<circle cx="630" cy="47" r="4" fill="#64748b" />
<text x="638" y="51" font-family="sans-serif" font-size="11" fill="#334155">visible</text>
<circle cx="735" cy="47" r="4" fill="#2563eb" />
<text x="743" y="51" font-family="sans-serif" font-size="11" fill="#334155">counter</text>
<circle cx="840" cy="47" r="4" fill="#16a34a" />
<text x="848" y="51" font-family="sans-serif" font-size="11" fill="#334155">release</text>
<circle cx="945" cy="47" r="4" fill="#ea580c" />
<text x="953" y="51" font-family="sans-serif" font-size="11" fill="#334155">fire</text>
<circle cx="1050" cy="47" r="4" fill="#9333ea" />
<text x="1058" y="51" font-family="sans-serif" font-size="11" fill="#334155">hit</text>
<text x="12" y="77" font-family="monospace" font-size="11">00 L hit t0</text>
<line x1="180" y1="72" x2="1460" y2="72" stroke="#cbd5e1" />
<circle cx="180.00" cy="72" r="4" fill="#64748b"><title>visible 0.000 ms</title></circle>
<circle cx="1459.12" cy="72" r="4" fill="#ea580c"><title>fire 12733.458 ms</title></circle>
<circle cx="1459.12" cy="72" r="4" fill="#9333ea"><title>hit 12733.458 ms</title></circle>
<text x="180" y="89" font-family="monospace" font-size="9" fill="#475569">no_counter|no_key_transition</text>
<text x="12" y="121" font-family="monospace" font-size="11">01 R hit t1</text>
<line x1="180" y1="116" x2="1460" y2="116" stroke="#cbd5e1" />
<circle cx="180.00" cy="116" r="4" fill="#64748b"><title>visible 0.000 ms</title></circle>
<circle cx="189.17" cy="116" r="4" fill="#ea580c"><title>fire 91.270 ms</title></circle>
<circle cx="257.77" cy="116" r="4" fill="#ea580c"><title>fire 774.145 ms</title></circle>
<circle cx="257.77" cy="116" r="4" fill="#9333ea"><title>hit 774.145 ms</title></circle>
<text x="180" y="133" font-family="monospace" font-size="9" fill="#475569">no_counter|no_key_transition</text>
<text x="12" y="165" font-family="monospace" font-size="11">02 L hit t2</text>
<line x1="180" y1="160" x2="1460" y2="160" stroke="#cbd5e1" />
<circle cx="180.00" cy="160" r="4" fill="#64748b"><title>visible 0.000 ms</title></circle>
<circle cx="242.25" cy="160" r="4" fill="#ea580c"><title>fire 619.692 ms</title></circle>
<circle cx="242.25" cy="160" r="4" fill="#9333ea"><title>hit 619.692 ms</title></circle>
<text x="180" y="177" font-family="monospace" font-size="9" fill="#475569">no_counter|no_key_transition</text>
<text x="12" y="209" font-family="monospace" font-size="11">03 R hit t3</text>
<line x1="180" y1="204" x2="1460" y2="204" stroke="#cbd5e1" />
<circle cx="180.00" cy="204" r="4" fill="#64748b"><title>visible 0.000 ms</title></circle>
<circle cx="230.16" cy="204" r="4" fill="#ea580c"><title>fire 499.365 ms</title></circle>
<circle cx="230.16" cy="204" r="4" fill="#9333ea"><title>hit 499.365 ms</title></circle>
<text x="180" y="221" font-family="monospace" font-size="9" fill="#475569">no_counter|no_key_transition</text>
<text x="12" y="253" font-family="monospace" font-size="11">04 L hit t4</text>
<line x1="180" y1="248" x2="1460" y2="248" stroke="#cbd5e1" />
<circle cx="180.00" cy="248" r="4" fill="#64748b"><title>visible 0.000 ms</title></circle>
<circle cx="189.20" cy="248" r="4" fill="#ea580c"><title>fire 91.553 ms</title></circle>
<circle cx="227.74" cy="248" r="4" fill="#ea580c"><title>fire 475.278 ms</title></circle>
<circle cx="227.74" cy="248" r="4" fill="#9333ea"><title>hit 475.278 ms</title></circle>
<text x="180" y="265" font-family="monospace" font-size="9" fill="#475569">no_counter|no_key_transition</text>
<text x="12" y="297" font-family="monospace" font-size="11">05 R hit t5</text>
<line x1="180" y1="292" x2="1460" y2="292" stroke="#cbd5e1" />
<circle cx="180.00" cy="292" r="4" fill="#64748b"><title>visible 0.000 ms</title></circle>
<circle cx="223.44" cy="292" r="4" fill="#ea580c"><title>fire 432.442 ms</title></circle>
<circle cx="223.44" cy="292" r="4" fill="#9333ea"><title>hit 432.442 ms</title></circle>
<text x="180" y="309" font-family="monospace" font-size="9" fill="#475569">no_counter|no_key_transition</text>
<text x="12" y="341" font-family="monospace" font-size="11">06 L hit t6</text>
<line x1="180" y1="336" x2="1460" y2="336" stroke="#cbd5e1" />
<circle cx="180.00" cy="336" r="4" fill="#64748b"><title>visible 0.000 ms</title></circle>
<circle cx="233.87" cy="336" r="4" fill="#ea580c"><title>fire 536.305 ms</title></circle>
<circle cx="233.87" cy="336" r="4" fill="#9333ea"><title>hit 536.305 ms</title></circle>
<text x="180" y="353" font-family="monospace" font-size="9" fill="#475569">no_counter|no_key_transition</text>
<text x="12" y="385" font-family="monospace" font-size="11">07 R hit t7</text>
<line x1="180" y1="380" x2="1460" y2="380" stroke="#cbd5e1" />
<circle cx="180.00" cy="380" r="4" fill="#64748b"><title>visible 0.000 ms</title></circle>
<circle cx="229.29" cy="380" r="4" fill="#ea580c"><title>fire 490.715 ms</title></circle>
<circle cx="229.29" cy="380" r="4" fill="#9333ea"><title>hit 490.715 ms</title></circle>
<text x="180" y="397" font-family="monospace" font-size="9" fill="#475569">no_counter|no_key_transition</text>
<text x="12" y="429" font-family="monospace" font-size="11">08 L hit t8</text>
<line x1="180" y1="424" x2="1460" y2="424" stroke="#cbd5e1" />
<circle cx="180.00" cy="424" r="4" fill="#64748b"><title>visible 0.000 ms</title></circle>
<circle cx="237.50" cy="424" r="4" fill="#ea580c"><title>fire 572.405 ms</title></circle>
<circle cx="237.50" cy="424" r="4" fill="#9333ea"><title>hit 572.405 ms</title></circle>
<text x="180" y="441" font-family="monospace" font-size="9" fill="#475569">no_counter|no_key_transition</text>
<text x="12" y="473" font-family="monospace" font-size="11">09 R hit t9</text>
<line x1="180" y1="468" x2="1460" y2="468" stroke="#cbd5e1" />
<circle cx="180.00" cy="468" r="4" fill="#64748b"><title>visible 0.000 ms</title></circle>
<circle cx="220.07" cy="468" r="4" fill="#ea580c"><title>fire 398.863 ms</title></circle>
<circle cx="220.07" cy="468" r="4" fill="#9333ea"><title>hit 398.863 ms</title></circle>
<text x="180" y="485" font-family="monospace" font-size="9" fill="#475569">no_counter|no_key_transition</text>
<text x="12" y="517" font-family="monospace" font-size="11">10 L hit t10</text>
<line x1="180" y1="512" x2="1460" y2="512" stroke="#cbd5e1" />
<circle cx="180.00" cy="512" r="4" fill="#64748b"><title>visible 0.000 ms</title></circle>
<circle cx="225.24" cy="512" r="4" fill="#ea580c"><title>fire 450.315 ms</title></circle>
<circle cx="225.24" cy="512" r="4" fill="#9333ea"><title>hit 450.315 ms</title></circle>
<text x="180" y="529" font-family="monospace" font-size="9" fill="#475569">no_counter|no_key_transition</text>
<text x="12" y="561" font-family="monospace" font-size="11">11 R hit t11</text>
<line x1="180" y1="556" x2="1460" y2="556" stroke="#cbd5e1" />
<circle cx="180.00" cy="556" r="4" fill="#64748b"><title>visible 0.000 ms</title></circle>
<circle cx="235.61" cy="556" r="4" fill="#ea580c"><title>fire 553.578 ms</title></circle>
<circle cx="235.61" cy="556" r="4" fill="#9333ea"><title>hit 553.578 ms</title></circle>
<text x="180" y="573" font-family="monospace" font-size="9" fill="#475569">no_counter|no_key_transition</text>
<text x="12" y="605" font-family="monospace" font-size="11">12 L hit t12</text>
<line x1="180" y1="600" x2="1460" y2="600" stroke="#cbd5e1" />
<circle cx="180.00" cy="600" r="4" fill="#64748b"><title>visible 0.000 ms</title></circle>
<circle cx="223.02" cy="600" r="4" fill="#ea580c"><title>fire 428.293 ms</title></circle>
<circle cx="223.02" cy="600" r="4" fill="#9333ea"><title>hit 428.293 ms</title></circle>
<text x="180" y="617" font-family="monospace" font-size="9" fill="#475569">no_counter|no_key_transition</text>
<text x="12" y="649" font-family="monospace" font-size="11">13 R hit t13</text>
<line x1="180" y1="644" x2="1460" y2="644" stroke="#cbd5e1" />
<circle cx="180.00" cy="644" r="4" fill="#64748b"><title>visible 0.000 ms</title></circle>
<circle cx="225.89" cy="644" r="4" fill="#ea580c"><title>fire 456.823 ms</title></circle>
<circle cx="225.89" cy="644" r="4" fill="#9333ea"><title>hit 456.823 ms</title></circle>
<text x="180" y="661" font-family="monospace" font-size="9" fill="#475569">no_counter|no_key_transition</text>
<text x="12" y="693" font-family="monospace" font-size="11">14 L hit t14</text>
<line x1="180" y1="688" x2="1460" y2="688" stroke="#cbd5e1" />
<circle cx="180.00" cy="688" r="4" fill="#64748b"><title>visible 0.000 ms</title></circle>
<circle cx="228.33" cy="688" r="4" fill="#ea580c"><title>fire 481.107 ms</title></circle>
<circle cx="228.33" cy="688" r="4" fill="#9333ea"><title>hit 481.107 ms</title></circle>
<text x="180" y="705" font-family="monospace" font-size="9" fill="#475569">no_counter|no_key_transition</text>
<text x="12" y="737" font-family="monospace" font-size="11">15 R hit t15</text>
<line x1="180" y1="732" x2="1460" y2="732" stroke="#cbd5e1" />
<circle cx="180.00" cy="732" r="4" fill="#64748b"><title>visible 0.000 ms</title></circle>
<circle cx="246.56" cy="732" r="4" fill="#ea580c"><title>fire 662.620 ms</title></circle>
<circle cx="246.56" cy="732" r="4" fill="#9333ea"><title>hit 662.620 ms</title></circle>
<text x="180" y="749" font-family="monospace" font-size="9" fill="#475569">no_counter|no_key_transition</text>
<text x="12" y="781" font-family="monospace" font-size="11">16 L hit t16</text>
<line x1="180" y1="776" x2="1460" y2="776" stroke="#cbd5e1" />
<circle cx="180.00" cy="776" r="4" fill="#64748b"><title>visible 0.000 ms</title></circle>
<circle cx="228.50" cy="776" r="4" fill="#ea580c"><title>fire 482.850 ms</title></circle>
<circle cx="228.50" cy="776" r="4" fill="#9333ea"><title>hit 482.850 ms</title></circle>
<text x="180" y="793" font-family="monospace" font-size="9" fill="#475569">no_counter|no_key_transition</text>
<text x="12" y="825" font-family="monospace" font-size="11">17 R hit t17</text>
<line x1="180" y1="820" x2="1460" y2="820" stroke="#cbd5e1" />
<circle cx="180.00" cy="820" r="4" fill="#64748b"><title>visible 0.000 ms</title></circle>
<circle cx="229.45" cy="820" r="4" fill="#ea580c"><title>fire 492.308 ms</title></circle>
<circle cx="229.45" cy="820" r="4" fill="#9333ea"><title>hit 492.308 ms</title></circle>
<text x="180" y="837" font-family="monospace" font-size="9" fill="#475569">no_counter|no_key_transition</text>
<text x="12" y="869" font-family="monospace" font-size="11">18 L hit t18</text>
<line x1="180" y1="864" x2="1460" y2="864" stroke="#cbd5e1" />
<circle cx="180.00" cy="864" r="4" fill="#64748b"><title>visible 0.000 ms</title></circle>
<circle cx="225.09" cy="864" r="4" fill="#ea580c"><title>fire 448.820 ms</title></circle>
<circle cx="225.09" cy="864" r="4" fill="#9333ea"><title>hit 448.820 ms</title></circle>
<text x="180" y="881" font-family="monospace" font-size="9" fill="#475569">no_counter|no_key_transition</text>
<text x="12" y="913" font-family="monospace" font-size="11">19 R hit t19</text>
<line x1="180" y1="908" x2="1460" y2="908" stroke="#cbd5e1" />
<circle cx="180.00" cy="908" r="4" fill="#64748b"><title>visible 0.000 ms</title></circle>
<circle cx="222.10" cy="908" r="4" fill="#ea580c"><title>fire 419.067 ms</title></circle>
<circle cx="222.10" cy="908" r="4" fill="#9333ea"><title>hit 419.067 ms</title></circle>
<text x="180" y="925" font-family="monospace" font-size="9" fill="#475569">no_counter|no_key_transition</text>
</svg>
