<svg xmlns="http://www.w3.org/2000/svg" width="900" height="280" viewBox="0 0 900 280">
<rect width="100%" height="100%" fill="white" />
<rect x="36.00" y="36" width="120.19" height="208" fill="#9ca3af" fill-opacity="0.18" />
<rect x="156.19" y="36" width="427.35" height="208" fill="#0ea5e9" fill-opacity="0.18" />
<rect x="583.55" y="36" width="270.56" height="208" fill="#22c55e" fill-opacity="0.18" />
<polyline points="36.00,244.00 49.35,244.00 62.71,244.00 76.06,244.00 89.42,244.00 102.77,244.00 116.13,244.00 129.48,244.00 142.84,240.30 156.19,236.60 169.55,225.51 182.90,210.71 196.26,191.69 209.61,165.97 222.97,158.85 236.32,144.07 249.68,73.87 263.03,110.80 276.39,81.21 289.74,70.00 303.10,55.21 316.45,51.33 329.81,84.54 343.16,36.00 356.52,39.67 369.87,69.11 383.23,76.46 396.58,99.25 409.94,91.55 423.29,102.59 436.65,117.68 450.00,128.73 463.35,147.13 476.71,165.48 490.06,165.92 503.42,173.28 516.77,180.96 530.13,188.48 543.48,195.88 556.84,195.74 570.19,206.98 583.55,203.28 596.90,206.98 610.26,214.39 623.61,218.09 636.97,218.09 650.32,221.79 663.68,225.49 677.03,229.19 690.39,221.79 703.74,229.19 717.10,236.60 730.45,238.76 743.81,244.00 757.16,244.00 770.52,244.00 783.87,244.00 797.23,244.00 810.58,244.00 823.94,244.00 837.29,244.00 850.65,244.00 864.00,240.30" fill="none" stroke="#111827" stroke-width="2" />
<line x1="316.45" y1="36" x2="316.45" y2="244" stroke="#dc2626" stroke-width="2" stroke-dasharray="4,3" />
<text x="36" y="20" font-family="sans-serif" font-size="13">counterstrafe_ad_v1-2026-08-07T09_37_24.351Z peek 3 (R): grey=REC blue=MR green=V red-dash=t_detect flags=none</text>
</svg>
